<svg
  xmlns:dc="http://purl.org/dc/elements/1.1/"
  xmlns:cc="http://creativecommons.org/ns#"
  xmlns:rdf="http://www.w3.org/1999/02/22-rdf-syntax-ns#"
  xmlns:svg="http://www.w3.org/2000/svg"
  xmlns="http://www.w3.org/2000/svg"
  xmlns:xlink="http://www.w3.org/1999/xlink"
  xmlns:sodipodi="http://sodipodi.sourceforge.net/DTD/sodipodi-0.dtd"
  xmlns:inkscape="http://www.inkscape.org/namespaces/inkscape"
  width="300"
  height="300"
  id="svg2"
  version="1.1"
  inkscape:version="0.92.3 (2405546, 2018-03-11)"
  sodipodi:docname="France flag icon.svg"
>
  <defs id="defs4">
    <linearGradient id="linearGradient4370">
      <stop
        id="stop4372"
        offset="0"
        style="stop-color: #ffffff; stop-opacity: 0.01960784"
      />
      <stop
        style="stop-color: #c4c4c4; stop-opacity: 0.19607843"
        offset="1"
        id="stop4374"
      />
      <stop
        id="stop4376"
        offset="1"
        style="stop-color: #717171; stop-opacity: 0.19607843"
      />
    </linearGradient>
    <linearGradient id="linearGradient3713">
      <stop
        style="stop-color: #ffffff; stop-opacity: 0"
        offset="0"
        id="stop3715"
      />
      <stop
        id="stop3721"
        offset="0.78185916"
        style="stop-color: #c3c3c3; stop-opacity: 0.07971015"
      />
      <stop
        style="stop-color: #6e6e6e; stop-opacity: 0.15686275"
        offset="1"
        id="stop3717"
      />
    </linearGradient>
    <linearGradient id="linearGradient3659">
      <stop
        style="stop-color: #ffffff; stop-opacity: 0.58823532"
        offset="0"
        id="stop3661"
      />
      <stop
        style="stop-color: #ffffff; stop-opacity: 0.07843138"
        offset="1"
        id="stop3663"
      />
    </linearGradient>
    <linearGradient id="linearGradient3642">
      <stop
        style="stop-color: #8e8e8e; stop-opacity: 1"
        offset="0"
        id="stop3644"
      />
      <stop
        style="stop-color: #b9b9b9; stop-opacity: 0"
        offset="1"
        id="stop3646"
      />
    </linearGradient>
    <linearGradient id="linearGradient3632">
      <stop
        style="stop-color: #ffffff; stop-opacity: 1"
        offset="0"
        id="stop3634"
      />
      <stop
        id="stop4375"
        offset="0.26565507"
        style="stop-color: #ffffff; stop-opacity: 0"
      />
      <stop
        id="stop4373"
        offset="0.73055643"
        style="stop-color: #ffffff; stop-opacity: 0"
      />
      <stop
        style="stop-color: #ffffff; stop-opacity: 1"
        offset="1"
        id="stop3636"
      />
    </linearGradient>
    <inkscape:perspective
      sodipodi:type="inkscape:persp3d"
      inkscape:vp_x="0 : 526.18109 : 1"
      inkscape:vp_y="0 : 1000 : 0"
      inkscape:vp_z="744.09448 : 526.18109 : 1"
      inkscape:persp3d-origin="372.04724 : 350.78739 : 1"
      id="perspective10"
    />
    <inkscape:perspective
      id="perspective2826"
      inkscape:persp3d-origin="0.5 : 0.33333333 : 1"
      inkscape:vp_z="1 : 0.5 : 1"
      inkscape:vp_y="0 : 1000 : 0"
      inkscape:vp_x="0 : 0.5 : 1"
      sodipodi:type="inkscape:persp3d"
    />
    <linearGradient
      inkscape:collect="always"
      xlink:href="#linearGradient3632"
      id="linearGradient3638"
      x1="94.744499"
      y1="167.12433"
      x2="488.11261"
      y2="557.60004"
      gradientUnits="userSpaceOnUse"
    />
    <linearGradient
      inkscape:collect="always"
      xlink:href="#linearGradient3659"
      id="linearGradient3665"
      x1="149.21875"
      y1="14.625"
      x2="149.21875"
      y2="154.20808"
      gradientUnits="userSpaceOnUse"
    />
    <radialGradient
      inkscape:collect="always"
      xlink:href="#linearGradient3713"
      id="radialGradient3719"
      cx="150"
      cy="150"
      fx="150"
      fy="150"
      r="135.475"
      gradientUnits="userSpaceOnUse"
      gradientTransform="translate(-9.7778303e-8,3.6362274e-6)"
    />
    <linearGradient id="linearGradient3900">
      <stop
        style="stop-color: #ffffff; stop-opacity: 0.70588237"
        offset="0"
        id="stop3908"
      />
      <stop
        id="stop3904"
        offset="1"
        style="stop-color: #ffffff; stop-opacity: 0.15686275"
      />
    </linearGradient>
    <inkscape:perspective
      id="perspective4480"
      inkscape:persp3d-origin="289.38385 : 174.85752 : 1"
      inkscape:vp_z="578.7677 : 262.28629 : 1"
      inkscape:vp_y="0 : 1000 : 0"
      inkscape:vp_x="0 : 262.28629 : 1"
      sodipodi:type="inkscape:persp3d"
    />
    <inkscape:perspective
      id="perspective5244"
      inkscape:persp3d-origin="0.5 : 0.33333333 : 1"
      inkscape:vp_z="1 : 0.5 : 1"
      inkscape:vp_y="0 : 1000 : 0"
      inkscape:vp_x="0 : 0.5 : 1"
      sodipodi:type="inkscape:persp3d"
    />
    <filter inkscape:collect="always" id="filter5254">
      <feGaussianBlur
        inkscape:collect="always"
        stdDeviation="2.336875"
        id="feGaussianBlur5256"
      />
    </filter>
    <linearGradient
      inkscape:collect="always"
      xlink:href="#linearGradient3900"
      id="linearGradient4378"
      x1="247.14284"
      y1="118.0229"
      x2="247.14284"
      y2="168.0229"
      gradientUnits="userSpaceOnUse"
      gradientTransform="matrix(1.0248902,0,0,1.05,-6.0264328,-6.881145)"
    />
  </defs>
  <sodipodi:namedview
    id="base"
    pagecolor="#ffffff"
    bordercolor="#666666"
    borderopacity="1.0"
    inkscape:pageopacity="0.0"
    inkscape:pageshadow="2"
    inkscape:zoom="2.8740844"
    inkscape:cx="101.0088"
    inkscape:cy="158.86322"
    inkscape:document-units="px"
    inkscape:current-layer="layer1"
    showgrid="false"
    inkscape:window-width="1920"
    inkscape:window-height="1017"
    inkscape:window-x="-8"
    inkscape:window-y="-8"
    inkscape:window-maximized="1"
  >
    <inkscape:grid
      type="xygrid"
      id="grid3654"
      empspacing="5"
      visible="true"
      enabled="true"
      snapvisiblegridlinesonly="true"
    />
  </sodipodi:namedview>
  <metadata id="metadata7">
    <rdf:RDF>
      <cc:Work rdf:about="">
        <dc:format>image/svg+xml</dc:format>
        <dc:type rdf:resource="http://purl.org/dc/dcmitype/StillImage" />
        <dc:title />
      </cc:Work>
    </rdf:RDF>
  </metadata>
  <g
    inkscape:label="Capa 1"
    inkscape:groupmode="layer"
    id="layer1"
    transform="translate(-97.142838,-101.21933)"
  >
    <path
      style="
        fill: #b3b3b3;
        fill-opacity: 0.62745098;
        stroke: none;
        filter: url(#filter5254);
      "
      d="m 138.86159,333.56308 c 24.53805,34.47775 64.73951,57.03125 110.28125,57.03125 74.76555,0 135.375,-60.60945 135.375,-135.375 0,-32.81356 -11.67155,-62.91082 -31.09375,-86.34375 0.63941,0.89842 1.35091,1.74173 1.96875,2.65625 2.43279,3.601 4.69722,7.31991 6.78125,11.15625 2.08403,3.83634 4.00616,7.79474 5.71875,11.84375 1.71259,4.04901 3.21279,8.19851 4.53125,12.4375 1.31846,4.23899 2.44209,8.56246 3.34375,12.96875 0.90166,4.40629 1.60033,8.88659 2.0625,13.4375 0.46217,4.55091 0.6875,9.1709 0.6875,13.84375 0,4.67285 -0.22533,9.29284 -0.6875,13.84375 -0.46217,4.55091 -1.16084,9.03121 -2.0625,13.4375 -0.90166,4.40629 -2.02529,8.72976 -3.34375,12.96875 -1.31846,4.23899 -2.81866,8.38849 -4.53125,12.4375 -1.71259,4.04901 -3.63472,8.0074 -5.71875,11.84375 -2.08403,3.83635 -4.34846,7.55525 -6.78125,11.15625 -2.43279,3.601 -5.02239,7.09453 -7.78125,10.4375 -2.75886,3.34297 -5.68774,6.53149 -8.75,9.59375 -3.06226,3.06226 -6.25078,5.99114 -9.59375,8.75 -3.34297,2.75886 -6.8365,5.34846 -10.4375,7.78125 -3.601,2.43279 -7.3199,4.69722 -11.15625,6.78125 -3.83635,2.08403 -7.79474,4.00616 -11.84375,5.71875 -4.04901,1.71259 -8.19851,3.21279 -12.4375,4.53125 -4.23899,1.31846 -8.56246,2.44209 -12.96875,3.34375 -4.40629,0.90166 -8.88659,1.60033 -13.4375,2.0625 -4.55091,0.46217 -9.1709,0.6875 -13.84375,0.6875 -4.67285,0 -9.29284,-0.22533 -13.84375,-0.6875 -4.55091,-0.46217 -9.03121,-1.16084 -13.4375,-2.0625 -4.40629,-0.90166 -8.72976,-2.02529 -12.96875,-3.34375 -4.23899,-1.31846 -8.38849,-2.81866 -12.4375,-4.53125 -4.04901,-1.71259 -8.00741,-3.63472 -11.84375,-5.71875 -3.83635,-2.08403 -7.55525,-4.34846 -11.15625,-6.78125 -3.601,-2.43279 -7.09453,-5.02239 -10.4375,-7.78125 -3.34297,-2.75886 -6.5315,-5.68774 -9.59375,-8.75 -2.99435,-2.99434 -5.85801,-6.11202 -8.5625,-9.375 z"
      id="path2840"
      inkscape:connector-curvature="0"
    />
    <path
      style="
        fill: #000080;
        fill-opacity: 1;
        stroke: none;
        stroke-width: 0.699359;
        stroke-opacity: 1;
      "
      d="M 70,40.96875 C 36.474576,65.60951 14.625,105.20303 14.625,150 c 0,44.79697 21.849576,84.39049 55.375,109.03125 z"
      id="path3672"
      transform="translate(97.142838,101.21933)"
      inkscape:connector-curvature="0"
    />
    <path
      style="
        fill: #ce1126;
        fill-opacity: 1;
        stroke: none;
        stroke-width: 0.699359;
        stroke-opacity: 1;
      "
      d="M 230,259.03125 C 263.52542,234.39049 285.375,194.79697 285.375,150 285.375,105.20303 263.52542,65.60951 230,40.96875 Z"
      id="path3674"
      transform="translate(97.142838,101.21933)"
      inkscape:connector-curvature="0"
    />
    <path
      style="
        fill: #ffffff;
        fill-opacity: 1;
        stroke: none;
        stroke-width: 0.699359;
        stroke-opacity: 1;
      "
      d="m 70,40.96875 v 218.0625 c 22.428066,16.48434 50.03142,26.34375 80,26.34375 29.96858,0 57.57193,-9.85941 80,-26.34375 V 40.96875 C 207.57193,24.484407 179.96858,14.625 150,14.625 c -29.96858,0 -57.571934,9.859407 -80,26.34375 z"
      id="path2816"
      transform="translate(97.142838,101.21933)"
      inkscape:connector-curvature="0"
    />
    <path
      style="
        fill: url(#radialGradient3719);
        fill-opacity: 1;
        stroke: none;
        stroke-width: 0.2;
        stroke-miterlimit: 4;
        stroke-dasharray: none;
        stroke-opacity: 1;
      "
      d="m 150,14.625 c -29.96858,0 -57.571934,9.859407 -80,26.34375 C 36.474576,65.60951 14.625,105.20303 14.625,150 c 0,44.79697 21.849576,84.39049 55.375,109.03125 22.428066,16.48434 50.03142,26.34375 80,26.34375 29.96858,0 57.57193,-9.85941 80,-26.34375 C 263.52542,234.39049 285.375,194.79697 285.375,150 285.375,105.20303 263.52542,65.60951 230,40.96875 207.57193,24.484407 179.96858,14.625 150,14.625 Z"
      id="path3676"
      transform="translate(97.142838,101.21933)"
      sodipodi:nodetypes="csssssssc"
      inkscape:connector-curvature="0"
    />
    <ellipse
      transform="matrix(0.65644144,0,0,0.66130395,55.83706,11.587781)"
      id="path3626"
      style="
        fill: none;
        stroke: url(#linearGradient3638);
        stroke-width: 4.77901363;
        stroke-miterlimit: 4;
        stroke-dasharray: none;
        stroke-opacity: 1;
      "
      cx="291.42856"
      cy="362.36218"
      rx="194.28572"
      ry="192.85715"
    />
    <path
      style="
        fill: url(#linearGradient3665);
        fill-opacity: 1;
        stroke: none;
        stroke-width: 0.699359;
        stroke-opacity: 1;
      "
      d="m 15.1875,138.625 c 0.980503,0.4265 2.033278,0.93723 3,1.34375 4.25705,1.79016 8.374146,3.39404 12.375,4.8125 4.000854,1.41846 7.862335,2.64636 11.625,3.71875 3.762665,1.07239 7.42627,1.9668 10.96875,2.71875 3.54248,0.75195 6.972198,1.35535 10.3125,1.8125 3.340302,0.45715 6.593872,0.78076 9.75,0.96875 3.156128,0.18799 6.22879,0.24304 9.21875,0.1875 2.98996,-0.0555 5.908203,-0.22656 8.75,-0.5 2.841797,-0.27344 5.600861,-0.6593 8.3125,-1.125 2.71164,-0.4657 5.36926,-1.02393 7.96875,-1.65625 5.19897,-1.26465 10.17285,-2.81641 15.03125,-4.59375 4.8584,-1.77734 9.58813,-3.75879 14.25,-5.84375 4.66187,-2.08496 9.26562,-4.28125 13.875,-6.46875 4.60938,-2.1875 9.23657,-4.38379 13.9375,-6.46875 4.70093,-2.08496 9.46973,-4.06641 14.40625,-5.84375 4.93652,-1.77734 10.02759,-3.3291 15.34375,-4.59375 2.65808,-0.63232 5.37625,-1.19055 8.15625,-1.65625 2.78,-0.4657 5.64258,-0.85156 8.5625,-1.125 2.91992,-0.27344 5.8909,-0.44446 8.96875,-0.5 3.07785,-0.0555 6.24622,-4.9e-4 9.5,0.1875 3.25378,0.18799 6.61478,0.5116 10.0625,0.96875 3.44772,0.45715 6.99658,1.06055 10.65625,1.8125 3.65967,0.75195 7.42288,1.64636 11.3125,2.71875 3.88962,1.07239 7.89368,2.30029 12.03125,3.71875 3.13027,1.07313 6.40626,2.37215 9.6875,3.65625 C 272.25757,63.150236 216.8645,14.625 150,14.625 c -70.926049,0 -129.023338,54.569443 -134.8125,124 z"
      id="path3650"
      transform="translate(97.142838,101.21933)"
      inkscape:connector-curvature="0"
    />
    <path
      sodipodi:nodetypes="csssssssc"
      id="path3594"
      d="m 247.26784,117.0429 c -19.37027,0 -37.21179,3.8236 -51.70822,10.21642 -21.66925,9.55596 -35.79178,24.91079 -35.79178,42.28358 0,17.37279 14.12253,32.72762 35.79178,42.28358 14.49643,6.39282 32.33795,10.21642 51.70822,10.21642 19.37027,0 37.21178,-3.8236 51.70822,-10.21642 21.66924,-9.55596 35.79178,-24.91079 35.79178,-42.28358 0,-17.37279 -14.12254,-32.72762 -35.79178,-42.28358 -14.49644,-6.39282 -32.33795,-10.21642 -51.70822,-10.21642 z"
      style="fill: url(#linearGradient4378); fill-opacity: 1; stroke: none"
      inkscape:connector-curvature="0"
    />
  </g>
</svg>
